# xmcd CD Database Entry
#
# Track frame offsets:
# 150
# 16467
# 33545
# 48767
# 68687
# 88045
# 103565
# 122695
# 129975
# 153701
# 167278
# 188000
#
# Disc length: 2760 seconds
#
# Revision: 3
# Processed by: cddbd v1.4PL0 Copyright (c) Steve Scherf et al.
# Submitted via: tcd 2.0b
#
DISCID=8f0ac60c
DTITLE=State of Being - Implosion
DYEAR=1900
DGENRE=
TTITLE0=To Be Or Not To
TTITLE1=Excavation
TTITLE2=Instinct
TTITLE3=Erosion
TTITLE4=Fall
TTITLE5=Red Frontier
TTITLE6=Rain
TTITLE7=Awake Until Dawn
TTITLE8=Mindrise
TTITLE9=Landslide
TTITLE10=Drought
TTITLE11=Instinct [metal and glass]
EXTD=
EXTT0=
EXTT1=
EXTT2=
EXTT3=
EXTT4=
EXTT5=
EXTT6=
EXTT7=
EXTT8=
EXTT9=
EXTT10=
EXTT11=
PLAYORDER=
